<svg width="132" height="128" viewBox="0 0 132 128" fill="none" xmlns="http://www.w3.org/2000/svg">
<g clip-path="url(#clip0_1331_2)">
<path d="M47.8117 94.7038L32.1367 66.4723L42.0177 60.9861L52.2064 79.3365L98.7884 53.4728L104.275 63.3538L47.8117 94.7038Z" fill="#FD0669"/>
<path d="M33.4511 67.3579L41.0167 62.9899L40.3027 61.7532L41.6485 60.9762L43.8325 64.759L42.4867 65.536L41.7727 64.2994L34.2071 68.6674L33.4511 67.3579ZM36.1474 72.2519C35.9374 71.8882 35.8414 71.526 35.8595 71.1653C35.8799 70.8086 35.9948 70.4756 36.2041 70.1661C36.4157 69.8607 36.7034 69.603 37.0671 69.393L42.317 66.362C42.6848 66.1497 43.0518 66.0294 43.4181 66.0011C43.7907 65.9746 44.1366 66.0416 44.4557 66.2023C44.7771 66.367 45.0428 66.6312 45.2528 66.9949C45.4628 67.3587 45.5576 67.7188 45.5372 68.0755C45.5191 68.4362 45.4042 68.7692 45.1926 69.0747C44.9832 69.3841 44.6967 69.6438 44.333 69.8538L39.0831 72.8848C38.7194 73.0948 38.3512 73.2131 37.9786 73.2397C37.6083 73.2702 37.2624 73.2032 36.941 73.0385C36.6219 72.8778 36.3574 72.6157 36.1474 72.2519ZM37.4204 71.5169C37.5138 71.6786 37.6458 71.7532 37.8165 71.7409C37.9912 71.7262 38.1614 71.6711 38.3271 71.5754L43.577 68.5444C43.7427 68.4487 43.8724 68.328 43.9661 68.1823C44.0638 68.0343 44.0684 67.8835 43.9797 67.7299C43.8934 67.5804 43.7605 67.5089 43.5811 67.5155C43.4081 67.5238 43.2387 67.5758 43.073 67.6714L37.8231 70.7024C37.6574 70.7981 37.5257 70.92 37.428 71.068C37.3343 71.2137 37.3318 71.3633 37.4204 71.5169ZM38.8602 76.7267L47.7716 71.5817L48.5416 72.9154C48.7843 73.3357 48.9209 73.731 48.9515 74.1014C48.9821 74.4717 48.883 74.8414 48.6543 75.2106C48.4256 75.5797 48.0444 75.9695 47.5108 76.38C46.9796 76.7945 46.2734 77.2561 45.3924 77.7647C44.5073 78.2757 43.7525 78.6577 43.1279 78.9105C42.5096 79.165 41.9835 79.2991 41.5494 79.3126C41.1194 79.3237 40.7517 79.2235 40.4463 79.0119C40.1449 78.7979 39.8729 78.4807 39.6302 78.0604L38.8602 76.7267ZM40.9257 77.2802C41.1123 77.6035 41.3715 77.7583 41.7031 77.7447C42.0347 77.7311 42.4451 77.6019 42.9343 77.3572C43.4235 77.1125 43.9934 76.8023 44.6441 76.4266C45.3028 76.0463 45.8564 75.7078 46.3048 75.4112C46.7573 75.1122 47.0672 74.8229 47.2343 74.5431C47.4079 74.2651 47.4025 73.9664 47.2182 73.6472L40.9257 77.2802ZM42.3407 82.9791C42.1307 82.6154 42.0348 82.2532 42.0528 81.8925C42.0732 81.5358 42.1881 81.2028 42.3974 80.8933C42.6091 80.5879 42.8968 80.3302 43.2605 80.1202L48.5103 77.0892C48.8781 76.8769 49.2451 76.7566 49.6114 76.7283C49.9841 76.7018 50.3299 76.7688 50.649 76.9295C50.9704 77.0942 51.2361 77.3584 51.4461 77.7221C51.6561 78.0859 51.7509 78.4461 51.7305 78.8027C51.7124 79.1634 51.5976 79.4965 51.3859 79.8019C51.1766 80.1113 50.8901 80.371 50.5263 80.581L45.2765 83.612C44.9128 83.822 44.5446 83.9403 44.1719 83.9669C43.8016 83.9975 43.4557 83.9304 43.1343 83.7657C42.8153 83.6051 42.5507 83.3429 42.3407 82.9791ZM43.6138 82.2441C43.7071 82.4058 43.8391 82.4805 44.0098 82.4681C44.1846 82.4534 44.3548 82.3983 44.5205 82.3026L49.7703 79.2716C49.936 79.1759 50.0657 79.0553 50.1595 78.9096C50.2572 78.7615 50.2617 78.6107 50.1731 78.4571C50.0867 78.3076 49.9539 78.2361 49.7745 78.2427C49.6014 78.251 49.432 78.303 49.2663 78.3987L44.0165 81.4297C43.8508 81.5253 43.7191 81.6472 43.6213 81.7952C43.5276 81.9409 43.5251 82.0906 43.6138 82.2441Z" fill="#2B2B53"/>
<path d="M57.0517 101.02C56.3837 101.406 55.7654 101.618 55.1969 101.656C54.6241 101.686 54.0888 101.565 53.5909 101.292C53.0931 101.019 52.6167 100.618 52.1618 100.091C51.7144 99.5583 51.2761 98.9206 50.8471 98.1776L53.1039 96.5744C53.3119 96.9347 53.5247 97.2772 53.7422 97.6019C53.9629 97.9148 54.185 98.1869 54.4085 98.4181C54.6353 98.6375 54.8617 98.7869 55.0878 98.8666C55.3214 98.9418 55.547 98.9166 55.7647 98.791C56.1249 98.583 56.2848 98.2705 56.2442 97.8536C56.1994 97.4292 56.0404 96.9806 55.7674 96.5077C55.4944 96.0349 55.0867 95.6148 54.5444 95.2474C54.002 94.88 53.4261 94.5671 52.8165 94.3085C51.7804 93.866 50.8481 93.4385 50.0196 93.0262C49.1986 92.6095 48.4779 92.15 47.8576 91.6475C47.2447 91.1407 46.7346 90.5345 46.3273 89.829C46.0066 89.2736 45.7833 88.722 45.6572 88.1744C45.5268 87.6192 45.4971 87.0909 45.5679 86.5897C45.642 86.0766 45.8178 85.6098 46.0954 85.1893C46.373 84.7689 46.7633 84.4135 47.2662 84.1231C47.8891 83.7635 48.4752 83.5652 49.0243 83.5284C49.581 83.4872 50.1033 83.5859 50.5914 83.8245C51.0869 84.0588 51.5507 84.4115 51.9828 84.8826C52.418 85.3418 52.8242 85.8979 53.2012 86.5509L50.9444 88.154C50.7841 87.8763 50.6087 87.6073 50.4184 87.3469C50.2312 87.0747 50.0367 86.8418 49.8348 86.6481C49.6329 86.4544 49.427 86.3231 49.2171 86.2542C49.0071 86.1852 48.8008 86.2093 48.5982 86.3263C48.283 86.5083 48.1433 86.769 48.1792 87.1086C48.2108 87.4406 48.3674 87.8505 48.6491 88.3384C49.0131 88.9689 49.533 89.4793 50.2087 89.8698C50.8845 90.2602 51.7329 90.681 52.754 91.1323C53.97 91.6611 55.015 92.1886 55.8892 92.7147C56.7709 93.2364 57.4825 93.9664 58.0242 94.9045C58.3665 95.4975 58.6212 96.086 58.7883 96.67C58.951 97.2466 59.0019 97.8026 58.9408 98.3382C58.8873 98.8695 58.7073 99.3637 58.4008 99.8209C58.1018 100.274 57.6521 100.673 57.0517 101.02ZM63.2499 97.2014L55.1379 83.151L52.8412 84.477L51.3982 81.9777L58.4234 77.9217L59.8664 80.421L57.5697 81.747L65.6817 95.7974L63.2499 97.2014ZM72.4513 92.1291C71.7683 92.5235 71.0919 92.7039 70.422 92.6703C69.7597 92.6324 69.1449 92.4169 68.5777 92.0238C68.0105 91.6308 67.5319 91.0965 67.1419 90.421L59.5499 77.2713L61.9817 75.8673L69.5737 89.017C69.76 89.3397 69.9885 89.5881 70.2591 89.7621C70.5254 89.9286 70.8011 89.9296 71.0863 89.7649C71.3865 89.5916 71.5274 89.3501 71.5088 89.0406C71.4859 88.7236 71.3812 88.4037 71.1949 88.081L63.6029 74.9313L66.0347 73.5273L73.6267 86.677C74.0167 87.3525 74.2364 88.0363 74.2857 88.7283C74.3425 89.4161 74.218 90.0584 73.9121 90.6553C73.6137 91.2479 73.1268 91.7391 72.4513 92.1291ZM77.3947 89.0349L67.8397 72.4851L70.3166 71.0551C71.0972 70.6045 71.8313 70.3507 72.519 70.2939C73.2068 70.2371 73.8934 70.4211 74.579 70.8459C75.2646 71.2707 75.9885 71.9785 76.7508 72.9695C77.5206 73.9561 78.3778 75.2676 79.3224 76.9038C80.2714 78.5475 80.9807 79.9493 81.4503 81.1093C81.923 82.2574 82.1719 83.2345 82.197 84.0406C82.2178 84.8393 82.0316 85.5222 81.6385 86.0894C81.2411 86.649 80.6522 87.1542 79.8716 87.6049L77.3947 89.0349ZM78.4225 85.1991C79.023 84.8524 79.3105 84.3712 79.2852 83.7553C79.2599 83.1395 79.02 82.3773 78.5656 81.4688C78.1111 80.5603 77.535 79.5019 76.8374 78.2935C76.131 77.0701 75.5024 76.042 74.9516 75.2092C74.3964 74.3689 73.859 73.7935 73.3395 73.483C72.8231 73.1606 72.2685 73.1706 71.6755 73.5129L78.4225 85.1991ZM85.7725 84.198L76.2175 67.6482L81.7791 64.4372L83.2221 66.9366L80.0923 68.7436L82.6663 73.2019L84.918 71.9019L86.322 74.3337L84.0703 75.6337L86.7613 80.2946L89.8911 78.4876L91.3341 80.987L85.7725 84.198ZM93.1388 79.945L83.5838 63.3953L85.858 62.0823L93.0887 69.4062L93.7333 70.0547L93.8684 69.9767L88.4474 60.5873L90.6766 59.3003L100.232 75.85L98.1825 77.033L90.7267 69.8392L90.0821 69.1906L89.947 69.2686L95.368 78.658L93.1388 79.945ZM103.644 73.8801L95.5315 59.8297L93.2348 61.1557L91.7918 58.6564L98.817 54.6004L100.26 57.0997L97.9633 58.4257L106.075 72.4761L103.644 73.8801Z" fill="#2B2B53"/>
</g>
<defs>
<clipPath id="clip0_1331_2">
<rect width="132" height="128" fill="white"/>
</clipPath>
</defs>
</svg>
